<?xml version="1.0" standalone="no"?>
<!DOCTYPE svg PUBLIC "-//W3C//DTD SVG 20010904//EN"
 "http://www.w3.org/TR/2001/REC-SVG-20010904/DTD/svg10.dtd">
<svg version="1.0" xmlns="http://www.w3.org/2000/svg"
 width="28.000000pt" height="28.000000pt" viewBox="0 0 28.000000 28.000000"
 preserveAspectRatio="xMidYMid meet">
<metadata>
Created by potrace 1.16, written by Peter Selinger 2001-2019
</metadata>
<g transform="translate(0.000000,28.000000) scale(0.100000,-0.100000)"
fill="#000000" stroke="none">
<path d="M4 267 c-2 -7 -3 -69 -2 -138 l3 -124 135 0 135 0 0 135 0 135 -133
3 c-103 2 -134 0 -138 -11z m240 -60 c9 -14 -2 -29 -62 -89 l-72 -73 -47 47
c-40 40 -45 49 -34 62 18 21 30 20 58 -6 l24 -22 52 52 c54 54 63 57 81 29z"/>
</g>
</svg>
